<svg width="202" height="57" viewBox="0 0 202 57" fill="none" xmlns="http://www.w3.org/2000/svg">
<g clip-path="url(#clip0_101_5)">
<path d="M43.5 34.6071C43.4998 38.0219 42.6255 41.3817 40.9577 44.3773C39.2898 47.3729 36.882 49.9081 33.9559 51.7495C31.0297 53.5909 27.6793 54.6793 24.2129 54.9146C20.7465 55.1498 17.2756 54.5244 14.1197 53.0958C10.9637 51.6672 8.22416 49.4814 6.15313 46.7396C4.0821 43.9977 2.74615 40.7879 2.26827 37.4056C1.79038 34.0234 2.18591 30.5773 3.41845 27.3846C4.65099 24.192 6.68093 21.3553 9.32142 19.1357" stroke="#324848" stroke-width="2.85714" stroke-linecap="round" stroke-linejoin="round"/>
<path d="M21.8742 27.075C21.4364 27.9634 21.2098 28.9379 21.2114 29.925C21.2059 30.7445 21.3661 31.557 21.6827 32.3152C21.9993 33.0734 22.466 33.7623 23.0556 34.3418C23.6453 34.9213 24.3463 35.38 25.1178 35.6911C25.8893 36.0023 26.716 36.1597 27.55 36.1543C28.396 36.1543 29.2074 36.4846 29.8056 37.0725C30.4039 37.6604 30.74 38.4578 30.74 39.2893V53.4171M2.36139 37.7421H10.0257C10.8773 37.7204 11.7248 37.8665 12.5181 38.1718C13.3114 38.4772 14.0344 38.9356 14.6445 39.52C15.2546 40.1044 15.7394 40.803 16.0704 41.5745C16.4013 42.346 16.5717 43.1749 16.5714 44.0121V53.9871M54.9342 7.61356L50.7914 6.22928C50.5002 6.13207 50.1847 6.13119 49.8929 6.22676C49.6012 6.32233 49.3493 6.5091 49.1757 6.75856L46.1514 11.3593L29.58 3.21642C28.2703 2.45786 26.8061 1.99317 25.2924 1.85558C23.7786 1.718 22.2526 1.91092 20.8235 2.42056C19.3945 2.93019 18.0977 3.74394 17.026 4.80356C15.9543 5.86319 15.1342 7.14251 14.6242 8.54999C14.4837 8.91512 14.4233 9.30533 14.4471 9.69501C14.4708 10.0847 14.5782 10.465 14.762 10.8111C14.9459 11.1571 15.2022 11.461 15.514 11.7028C15.8258 11.9447 16.1862 12.119 16.5714 12.2143L27.3842 15.6343L28.4614 16.0007L30.4914 22.8407C30.5566 23.0789 30.6819 23.297 30.8557 23.4749C31.0295 23.6529 31.2462 23.7848 31.4857 23.8586L36.3742 25.4057C36.6238 25.4856 36.8901 25.5012 37.1476 25.451C37.405 25.4007 37.645 25.2864 37.8446 25.1188C38.0442 24.9513 38.1967 24.7362 38.2874 24.4941C38.3781 24.2521 38.4041 23.9912 38.3628 23.7364L37.2857 18.6471H37.99L48.5542 22.0264C49.2466 22.261 50.0052 22.2171 50.6648 21.9045C51.3243 21.5918 51.8315 21.0356 52.0757 20.3571L55.8042 9.07928C55.8453 8.77473 55.7821 8.46541 55.6246 8.20005C55.4671 7.93469 55.2242 7.72836 54.9342 7.61356Z" stroke="#324848" stroke-width="2.85714" stroke-linecap="round" stroke-linejoin="round"/>
</g>
<path d="M74 44V23.648H66.128V21.6H84.24V23.648H76.368V44H74ZM89.943 44V21.6H98.327C100.226 21.6 101.858 21.9093 103.223 22.528C104.588 23.1253 105.634 24 106.359 25.152C107.106 26.2827 107.479 27.6587 107.479 29.28C107.479 30.8587 107.106 32.224 106.359 33.376C105.634 34.5067 104.588 35.3813 103.223 36C101.858 36.5973 100.226 36.896 98.327 36.896H91.255L92.311 35.808V44H89.943ZM105.239 44L99.479 35.872H102.039L107.831 44H105.239ZM92.311 36L91.255 34.88H98.263C100.503 34.88 102.199 34.3893 103.351 33.408C104.524 32.4267 105.111 31.0507 105.111 29.28C105.111 27.488 104.524 26.1013 103.351 25.12C102.199 24.1387 100.503 23.648 98.263 23.648H91.255L92.311 22.528V36ZM111.404 44L121.644 21.6H123.98L134.22 44H131.724L122.316 22.976H123.276L113.868 44H111.404ZM115.436 38.016L116.14 36.096H129.164L129.868 38.016H115.436ZM145.057 44L135.137 21.6H137.697L146.977 42.688H145.569L154.913 21.6H157.313L147.393 44H145.057ZM164.596 31.616H176.436V33.632H164.596V31.616ZM164.852 41.952H178.324V44H162.484V21.6H177.844V23.648H164.852V41.952ZM185.81 44V21.6H188.178V41.952H200.722V44H185.81Z" fill="#324848"/>
<defs>
<clipPath id="clip0_101_5">
<rect width="58" height="57" fill="white"/>
</clipPath>
</defs>
</svg>
